<svg width="100" height="100" viewBox="0 0 100 100" fill="none" xmlns="http://www.w3.org/2000/svg">
  <!-- Whale body -->
  <path
    d="M50 20
       C68 20, 82 33, 82 50
       C82 64, 70 76, 55 78
       C52 78, 50 79, 49 81
       L45 86
       C43 88, 40 87, 40 84
       L41 76
       C26 72, 18 60, 18 50
       C18 33, 32 20, 50 20 Z"
    fill="#4D6BFE"
  />
  <!-- Tail fin -->
  <path
    d="M72 22
       C76 18, 83 16, 89 18
       C91 19, 91 21, 89 23
       L82 28
       C80 29, 78 29, 76 28
       L72 26
       C70 25, 70 23, 72 22 Z"
    fill="#4D6BFE"
  />
  <!-- Belly highlight -->
  <path
    d="M32 48
       C32 60, 42 68, 52 67
       C52 64, 48 60, 42 58
       C38 56, 34 52, 32 48 Z"
    fill="#FFFFFF"
  />
  <!-- Eye -->
  <circle cx="62" cy="42" r="2.2" fill="#FFFFFF" />
</svg>
